<svg width="25" height="25" viewBox="0 0 25 25" fill="none" xmlns="http://www.w3.org/2000/svg">
<path d="M4.48648 1.65854L3.07227 0.244327L0.243839 3.07275L1.65805 4.48697L4.48648 1.65854ZM22.3761 24.3766C23.4806 24.3766 24.3761 23.4811 24.3761 22.3766L24.3761 4.37655C24.3761 3.27198 23.4806 2.37655 22.3761 2.37655C21.2715 2.37655 20.3761 3.27198 20.3761 4.37655L20.3761 20.3766L4.37606 20.3766C3.27149 20.3766 2.37606 21.272 2.37606 22.3766C2.37606 23.4811 3.27149 24.3766 4.37606 24.3766L22.3761 24.3766ZM1.65805 4.48697L20.9619 23.7908L23.7903 20.9623L4.48648 1.65854L1.65805 4.48697Z" fill="#050505"/>
</svg>
