<svg width="24" height="28" viewBox="0 0 24 28" fill="none" xmlns="http://www.w3.org/2000/svg">
<path fill-rule="evenodd" clip-rule="evenodd" d="M12.3963 27.2303C14.4725 26.1947 24 20.9543 24 11.9966C24 5.37104 18.6274 0 12 0C5.37258 0 0 5.37104 0 11.9966C0 20.9543 9.5275 26.1947 11.6037 27.2303C11.8585 27.3574 12.1415 27.3574 12.3963 27.2303ZM11.9944 17.1378C14.8347 17.1378 17.1373 14.836 17.1373 11.9965C17.1373 9.15696 14.8347 6.85509 11.9944 6.85509C9.1541 6.85509 6.85156 9.15696 6.85156 11.9965C6.85156 14.836 9.1541 17.1378 11.9944 17.1378Z" fill="white"/>
</svg>
