<svg width="162" height="59" viewBox="0 0 162 59" fill="none" xmlns="http://www.w3.org/2000/svg">
<g clip-path="url(#clip0_1007_485)">
<path d="M162.009 56.7996C151.48 50.3966 152.382 48.3858 145.93 37.1797C131.233 8.81369 96.3813 -4.88169 64.8574 1.52678C49.5282 4.64243 37.8385 12.3494 37.0457 12.9082C34.4947 14.7053 28.9973 18.6355 23.6378 25.296C16.7978 33.7974 12.8535 41.7801 12.8535 41.7801C11.2605 45.0054 9.92519 48.2781 6.53422 51.7846C4.13205 54.2701 1.69179 55.8481 -0.0136719 56.7996H18.5559C19.22 53.2675 20.2868 49.0835 22.034 44.536C23.5163 40.677 25.18 37.3623 26.7675 34.6101C27.0342 36.1077 27.6765 38.6097 29.3838 41.2395C30.9913 43.7142 32.8673 45.2592 34.0793 46.1121C34.8884 43.5626 36.104 40.4835 37.9655 37.1961C39.4751 34.5279 41.0717 32.3181 42.5322 30.5411C41.469 33.9563 40.462 37.9796 39.769 42.5362C38.9507 47.9165 38.7638 52.747 38.86 56.7996H52.4438C50.7982 53.3059 48.4106 46.8627 49.0837 38.827C50.029 27.5405 56.5406 18.7597 59.0207 16.8768C59.3473 16.6284 61.4048 15.1345 61.1526 14.6231C61.0709 14.4569 60.7716 14.4496 60.6718 14.4478C58.8121 14.4058 49.7278 28.2217 49.8403 40.9692C49.8403 40.9692 49.8965 47.3448 52.598 51.8923C53.2185 52.9369 53.9588 53.8337 53.9588 53.8337C54.5938 54.597 55.129 55.0792 55.3921 55.344C55.3921 55.344 57.1665 56.9073 59.5977 57.7858C66.2272 60.18 72.4431 56.5676 73.7295 55.7823C87.4348 62.3131 106.919 58.5711 116.789 47.2827C119.605 43.2722 122.31 38.6864 119.842 33.4175C113.73 24.7974 104.945 31.0598 96.5954 32.9025C93.2044 33.2349 92.7835 29.7248 93.7868 27.6282C95.9222 20.712 108.345 12.9064 118.345 17.3005C120.111 18.0767 121.735 19.3861 121.735 19.3861C122.219 19.8774 122.943 20.7284 123.438 21.9594C124.131 23.6815 124.012 25.2449 123.912 26.1525C123.242 32.2761 120.006 40.772 119.699 41.6358C118.295 45.5971 117.594 47.5768 116.292 49.5674C113.924 53.1853 111.017 55.4591 108.956 56.7977H130.634C129.03 56.0672 127.557 54.3268 127.889 51.9708C128.119 49.6168 130.066 41.8404 133.132 31.4068C135.337 34.3179 137.822 38.1111 140.048 42.801C142.552 48.079 143.985 52.9315 144.833 56.7996H162.005H162.009ZM33.3499 34.4786C32.548 32.9317 31.8222 29.8033 31.8567 28.072C34.1319 25.1335 37.4993 21.3969 42.2147 17.8411C47.1823 14.0935 51.9376 11.8362 55.4991 10.4647C47.928 15.9308 39.007 24.8577 33.3499 34.4768V34.4786ZM72.7044 45.4966C66.6064 52.4676 57.7652 50.729 58.2696 40.6843C59.2639 26.8575 68.1232 15.6148 74.2193 14.6231C77.0987 14.1684 79.4409 14.8021 80.6747 19.1505C83.3218 24.9106 77.173 42.0778 72.7044 45.4966ZM111.398 36.2245C111.861 36.9788 111.117 38.2042 110.727 38.8544C110.435 39.3402 109.914 40.0671 109.023 40.7629C104.459 45.5386 93.8594 47.7265 90.0112 46.9211C90.0547 46.8335 89.9586 43.7105 89.9586 43.7105C89.9586 43.7105 87.3459 41.886 85.7149 42.5965C84.4684 44.956 82.4545 47.5421 80.2792 49.8469C82.6922 46.5906 85.2196 41.9153 87.0502 36.6884C87.0593 36.6994 87.0629 36.7067 87.0629 36.7067C87.0484 36.7213 85.098 34.495 85.0182 34.5608C84.9456 34.621 86.1666 36.6592 88.3257 38.4216C88.8718 38.8672 89.5068 39.384 90.4031 39.8315C93.2008 41.2286 96.0928 40.7245 97.8382 40.3976C100.195 39.9557 101.904 39.1649 103.002 38.6498C106.162 37.1632 108.637 35.1835 110.569 35.6931C111.141 35.8447 111.339 36.1277 111.398 36.2227V36.2245ZM89.5086 18.8382C89.0061 14.5976 87.531 10.6016 84.6825 7.27595C84.0638 6.70066 83.4252 6.2167 82.772 5.80943C89.4887 6.05598 96.1926 7.27777 102.599 9.4675C97.3592 10.6747 92.6928 14.3857 89.5086 18.8382Z" fill="black"/>
<path d="M152.562 51.7736C149.345 48.1593 147.809 44.7003 147.252 43.495C143.723 35.8593 137.852 28.5833 136.389 26.7716C135.188 25.2832 129.99 18.9733 121.906 13.4086C104.357 1.32586 85.6264 1.29481 79.1656 1.36969C68.2669 1.49753 60.2839 3.86076 58.0813 4.54562C53.8213 5.86968 43.3853 9.56244 32.9493 18.4802C29.4205 21.4954 25.5124 24.8357 21.8275 30.4041C21.0673 31.5529 16.2449 38.9493 12.7469 46.1212C12.3169 47.0033 11.2011 49.4268 8.93316 51.9964C7.6958 53.3971 6.5183 54.3907 5.73633 54.9988C7.45812 54.9787 9.267 54.9038 11.1557 54.7614C12.2697 54.6774 13.3492 54.5715 14.3979 54.4509C15.7641 49.3026 19.1532 38.7558 27.334 28.5504C27.1617 30.3219 27.031 34.2393 29.1175 38.4197C30.3785 40.9455 32.0005 42.6659 33.1634 43.7087C33.8819 41.6851 34.8435 39.4388 36.1426 37.0865C38.913 32.066 42.2006 28.4098 44.8767 25.9151C43.3128 30.4991 41.8032 36.1241 40.9015 42.6385C40.2665 47.2151 40.0452 51.4156 40.0488 55.1212H47.0775C44.5955 47.6863 44.8622 41.7363 45.3031 38.3503C47.1174 24.381 57.2032 12.9886 66.7556 7.6357C63.2322 10.5596 60.5706 14.5555 59.2189 16.5864C52.1757 27.1643 48.1751 43.1389 54.3438 50.928C54.9026 51.633 56.4503 53.5396 59.1046 54.5715C64.1412 56.5293 69.3229 53.8464 71.0991 52.9278C85.3996 45.5277 91.0276 13.8926 81.1559 6.14363C78.9841 4.43787 76.4423 4.18767 75.8308 4.14201C74.9509 4.07626 74.0891 4.1347 73.2527 4.29542C73.3089 4.26254 73.3634 4.22967 73.4142 4.19862C75.2067 4.02513 77.1172 3.90459 79.1329 3.86807C92.6623 3.62517 103.267 7.24488 108.824 9.60445C106.195 9.7049 102.628 10.2564 98.9254 12.1722C98.3647 12.4626 90.9314 16.4512 87.7128 25.1024C87.7128 25.1024 85.6608 30.6178 87.0506 34.2028C87.8144 36.1715 89.1806 37.2034 89.1806 37.2034C89.7376 37.5705 90.6212 38.08 91.7842 38.4416C93.4298 38.9548 95.0754 38.9986 96.848 38.7284C102.024 37.9339 105.771 34.8274 109.352 34.3745C110.016 34.2905 111.511 34.1206 112.281 35.0082C112.281 35.0082 112.457 35.2182 112.573 35.4903C113.36 37.3294 111.165 39.8771 110.279 40.9053C109.603 41.6924 106.039 45.6573 98.2668 47.7813C95.9353 48.4187 92.2668 49.1474 87.6167 48.9246C87.5985 48.5301 87.584 48.1338 87.5695 47.7338C87.5441 47.0033 87.5242 46.2801 87.5096 45.566C87.3409 45.4162 87.0288 45.1898 86.5861 45.1021C86.4428 45.0729 86.3104 45.0656 86.1961 45.0656C85.2925 46.722 84.0534 48.6561 82.3624 50.6394C81.2212 51.9799 80.08 53.0976 79.0259 54.0217C81.624 54.6208 85.3161 55.2143 89.7467 55.07C97.5138 54.8162 103.035 52.4457 104.127 51.9617C106.576 50.8769 113.01 47.9292 117.009 41.4915C119.014 38.2645 118.968 36.4656 118.712 35.3461C118.208 33.1362 116.346 31.3848 114.452 30.6287C113.333 30.1831 112.337 30.1393 111.517 30.1539C106.908 30.2306 104.561 32.1208 98.176 33.7188C96.3418 34.1791 93.7273 34.7251 92.0164 33.4869C91.2417 32.9244 90.8117 32.1245 90.8117 32.1245C90.8117 32.1245 90.1459 30.8844 90.4361 29.038C90.7137 27.2793 93.0506 20.5933 100.317 16.5517C102.102 15.5582 107.759 12.7384 114.356 14.0022C116.472 14.4076 118.366 15.171 119.832 15.8851C119.752 16.0129 123.196 17.4046 124.674 20.4325C125.592 22.3118 125.511 24.3317 125.186 25.9589C124.061 30.5721 122.931 35.01 121.799 39.384C120.859 43.0092 119.721 47.6169 116.225 52.4621C115.421 53.5761 114.681 54.4436 114.166 55.0171H125.206C125.075 54.7559 124.828 54.2336 124.625 53.5469C123.967 51.3133 124.353 49.341 124.58 48.3073C125.142 45.7395 127.365 36.6062 130.73 24.2458C131.231 24.7444 131.621 25.1499 131.895 25.4384C142.064 36.177 146.236 47.8251 148.006 54.3103C148.779 54.4381 149.585 54.5514 150.419 54.6445C152.346 54.86 154.153 54.9385 155.815 54.9312C155.013 54.2628 153.834 53.2072 152.56 51.7754L152.562 51.7736ZM74.6443 9.17893C74.9672 9.20815 76.9467 9.41087 78.5941 10.7495C86.8075 17.4228 79.4178 46.302 68.1545 50.0441C66.9135 50.4568 62.7115 51.8521 59.3604 49.7829C57.8654 48.8588 57.0943 47.5877 56.7569 47.0197C53.3296 41.2413 54.8591 29.1641 61.4759 19.2802C63.6041 16.1006 68.6062 8.63104 74.6443 9.17893ZM27.334 28.5468C28.2865 27.3579 29.3062 26.1726 30.393 25.0019C29.3733 26.1835 28.3537 27.3652 27.334 28.5468ZM64.6818 5.75645C61.2655 7.50969 48.059 14.6578 37.1259 30.5228C36.1171 31.9857 34.5822 34.316 32.9022 37.3495C32.3452 36.5222 31.7827 35.5232 31.311 34.3507C29.7688 30.5119 30.0682 26.9579 30.4039 24.9928C32.1547 23.1081 34.0851 21.2599 36.2151 19.4829C38.855 17.2804 46.8725 10.965 59.081 7.08782C60.3166 6.69516 62.4321 6.06144 65.2479 5.46059C64.9866 5.59391 64.7907 5.70166 64.6818 5.75645ZM109.826 10.0409C110.43 10.3094 110.956 10.5541 111.399 10.7641C113.953 11.9786 116.287 13.2753 118.393 14.5811C114.971 12.5941 112.014 11.0929 109.824 10.0409H109.826ZM129.827 23.3638C130.157 23.6779 130.456 23.9701 130.723 24.2349C130.424 23.9445 130.124 23.6541 129.827 23.3638Z" fill="#E1FF2D" stroke="#E1FF2D" stroke-miterlimit="10"/>
<path d="M56.0469 16.6212C57.707 14.8113 60.8748 11.535 64.048 9.19549C65.4922 8.13076 66.9582 7.23405 66.9727 7.22492C67.2267 7.06968 67.4753 6.92176 67.7148 6.78296C67.6767 6.80853 67.6404 6.83592 67.6023 6.86149C67.0036 7.28154 66.579 7.62305 66.3758 7.78742C64.8318 9.0293 63.2298 10.6328 61.6132 12.5559L56.0469 16.6212Z" fill="black"/>
<path d="M66.1381 7.86402C64.6467 9.08581 63.1064 10.64 61.5533 12.4882L60.833 13.0142L56.7599 15.9892C58.5162 14.1191 61.3084 11.3285 64.1043 9.26844C64.8463 8.72056 65.5884 8.22198 66.1381 7.86402ZM71.2708 4.87256C71.2581 4.87256 69.3767 5.65238 66.9292 7.14629C66.9292 7.14629 65.4632 8.04117 63.9972 9.12051C60.1454 11.9586 56.3879 16.097 55.3828 17.2201C57.482 15.6879 59.5793 14.1556 61.6785 12.6233C62.876 11.197 64.5506 9.37437 66.4357 7.85854C66.6606 7.67774 67.0761 7.34536 67.6567 6.93627C69.6416 5.54281 71.2726 4.87621 71.2708 4.87256Z" fill="black"/>
</g>
<defs>
<clipPath id="clip0_1007_485">
<rect width="162" height="59" fill="white"/>
</clipPath>
</defs>
</svg>
