<svg width="412" height="180" viewBox="0 0 412 180" fill="none" xmlns="http://www.w3.org/2000/svg">
<rect x="133" width="95" height="179" fill="#E1FF2D" fill-opacity="0.5"/>
<path d="M28.8 134H10.88V44.4H33.28L62.976 92.144H63.616L93.184 44.4H115.84V134H97.92V69.616H97.28L70.144 113.392H56.576L29.44 69.616H28.8V134ZM180.254 135.536C171.038 135.536 162.846 133.616 155.678 129.776C148.595 125.851 143.049 120.389 139.038 113.392C135.113 106.309 133.15 98.2453 133.15 89.2C133.15 80.1547 135.113 72.1333 139.038 65.136C143.049 58.0533 148.595 52.592 155.678 48.752C162.846 44.8267 171.038 42.864 180.254 42.864C189.47 42.864 197.619 44.8267 204.702 48.752C211.87 52.592 217.417 58.0533 221.342 65.136C225.353 72.1333 227.358 80.1547 227.358 89.2C227.358 98.2453 225.353 106.309 221.342 113.392C217.417 120.389 211.87 125.851 204.702 129.776C197.619 133.616 189.47 135.536 180.254 135.536ZM180.254 118.896C185.63 118.896 190.366 117.659 194.462 115.184C198.643 112.709 201.843 109.253 204.062 104.816C206.366 100.293 207.518 95.088 207.518 89.2C207.518 83.312 206.366 78.1493 204.062 73.712C201.843 69.1893 198.643 65.6907 194.462 63.216C190.366 60.7413 185.63 59.504 180.254 59.504C174.878 59.504 170.099 60.7413 165.918 63.216C161.822 65.6907 158.622 69.1893 156.318 73.712C154.099 78.1493 152.99 83.312 152.99 89.2C152.99 95.088 154.099 100.293 156.318 104.816C158.622 109.253 161.822 112.709 165.918 115.184C170.099 117.659 174.878 118.896 180.254 118.896ZM280.5 135.536C267.017 135.536 256.82 133.019 249.908 127.984C242.996 122.864 239.54 115.696 239.54 106.48H258.996C258.996 111.088 260.788 114.416 264.372 116.464C267.956 118.512 273.289 119.536 280.372 119.536C293.599 119.536 300.212 116.08 300.212 109.168C300.212 106.523 299.188 104.389 297.14 102.768C295.177 101.147 292.66 99.9093 289.588 99.056C286.601 98.2027 282.377 97.2213 276.916 96.112C269.407 94.7467 263.305 93.296 258.612 91.76C253.919 90.1387 249.865 87.5787 246.452 84.08C243.124 80.5813 241.46 75.76 241.46 69.616C241.46 64.1547 242.996 59.4187 246.068 55.408C249.225 51.3973 253.663 48.3253 259.38 46.192C265.097 43.9733 271.753 42.864 279.348 42.864C287.113 42.864 293.897 44.016 299.7 46.32C305.503 48.5387 309.94 51.7387 313.012 55.92C316.169 60.1013 317.748 64.9653 317.748 70.512H298.292C298.292 66.672 296.628 63.7707 293.3 61.808C289.972 59.8453 285.193 58.864 278.964 58.864C273.247 58.864 268.852 59.6747 265.78 61.296C262.793 62.832 261.3 65.2213 261.3 68.464C261.3 71.024 262.281 73.072 264.244 74.608C266.207 76.144 268.639 77.3387 271.54 78.192C274.527 78.96 278.623 79.856 283.828 80.88C291.423 82.3307 297.609 83.8667 302.388 85.488C307.252 87.1093 311.391 89.7973 314.804 93.552C318.303 97.2213 320.052 102.256 320.052 108.656C320.052 117.189 316.596 123.803 309.684 128.496C302.857 133.189 293.129 135.536 280.5 135.536ZM376.849 134H358.289V60.4H326.929V44.4H408.209V60.4H376.849V134Z" fill="white"/>
<line x1="411" y1="179.5" y2="179.5" stroke="white"/>
<line x1="411" y1="0.5" y2="0.5" stroke="white"/>
<line x1="411.5" y1="2.18557e-08" x2="411.5" y2="179" stroke="white"/>
<line x1="0.5" y1="2.18557e-08" x2="0.499992" y2="179" stroke="white"/>
<line x1="411" y1="44.5" y2="44.5" stroke="white"/>
<line x1="411" y1="134.5" y2="134.5" stroke="white"/>
</svg>
