<svg width="698" height="299" viewBox="0 0 698 299" fill="none" xmlns="http://www.w3.org/2000/svg">
<rect x="34.5" y="36.5" width="628" height="226" stroke="white"/>
<rect x="661.891" width="34.4399" height="35.5161" fill="white"/>
<rect y="263" width="35.5161" height="35.5161" fill="white"/>
<rect width="35.5161" height="35.5161" fill="white"/>
<rect x="661.891" y="263" width="35.5161" height="35.5161" fill="white"/>
<rect x="0.5" y="0.5" width="696" height="298" stroke="white"/>
<path d="M337.648 284.034V285H329.92V284.426C329.92 283.642 330.093 282.998 330.438 282.494C330.793 281.99 331.213 281.598 331.698 281.318C332.183 281.038 332.832 280.735 333.644 280.408C334.288 280.156 334.792 279.937 335.156 279.75C335.529 279.554 335.837 279.302 336.08 278.994C336.332 278.686 336.458 278.308 336.458 277.86C336.458 277.263 336.248 276.81 335.828 276.502C335.408 276.185 334.806 276.026 334.022 276.026C333.238 276.026 332.585 276.213 332.062 276.586C331.539 276.95 331.278 277.449 331.278 278.084H330.228C330.228 277.468 330.391 276.931 330.718 276.474C331.054 276.017 331.507 275.667 332.076 275.424C332.655 275.181 333.303 275.06 334.022 275.06C335.095 275.06 335.949 275.312 336.584 275.816C337.228 276.311 337.55 276.992 337.55 277.86C337.55 278.504 337.391 279.041 337.074 279.47C336.757 279.899 336.369 280.24 335.912 280.492C335.455 280.744 334.843 281.019 334.078 281.318C333.406 281.57 332.869 281.803 332.468 282.018C332.067 282.223 331.731 282.489 331.46 282.816C331.189 283.143 331.054 283.549 331.054 284.034H337.648ZM343.244 285.14C342.395 285.14 341.648 284.925 341.004 284.496C340.36 284.067 339.861 283.474 339.506 282.718C339.161 281.953 338.988 281.08 338.988 280.1C338.988 279.12 339.161 278.252 339.506 277.496C339.861 276.731 340.36 276.133 341.004 275.704C341.648 275.275 342.395 275.06 343.244 275.06C344.094 275.06 344.84 275.275 345.484 275.704C346.128 276.133 346.623 276.731 346.968 277.496C347.323 278.252 347.5 279.12 347.5 280.1C347.5 281.08 347.323 281.953 346.968 282.718C346.623 283.474 346.128 284.067 345.484 284.496C344.84 284.925 344.094 285.14 343.244 285.14ZM343.244 284.174C343.888 284.174 344.448 284.001 344.924 283.656C345.4 283.311 345.764 282.83 346.016 282.214C346.278 281.598 346.408 280.893 346.408 280.1C346.408 279.307 346.278 278.602 346.016 277.986C345.764 277.37 345.4 276.889 344.924 276.544C344.448 276.199 343.888 276.026 343.244 276.026C342.6 276.026 342.04 276.199 341.564 276.544C341.088 276.889 340.72 277.37 340.458 277.986C340.206 278.602 340.08 279.307 340.08 280.1C340.08 280.893 340.206 281.598 340.458 282.214C340.72 282.83 341.088 283.311 341.564 283.656C342.04 284.001 342.6 284.174 343.244 284.174ZM356.44 284.034V285H348.712V284.426C348.712 283.642 348.885 282.998 349.23 282.494C349.585 281.99 350.005 281.598 350.49 281.318C350.976 281.038 351.624 280.735 352.436 280.408C353.08 280.156 353.584 279.937 353.948 279.75C354.322 279.554 354.63 279.302 354.872 278.994C355.124 278.686 355.25 278.308 355.25 277.86C355.25 277.263 355.04 276.81 354.62 276.502C354.2 276.185 353.598 276.026 352.814 276.026C352.03 276.026 351.377 276.213 350.854 276.586C350.332 276.95 350.07 277.449 350.07 278.084H349.02C349.02 277.468 349.184 276.931 349.51 276.474C349.846 276.017 350.299 275.667 350.868 275.424C351.447 275.181 352.096 275.06 352.814 275.06C353.888 275.06 354.742 275.312 355.376 275.816C356.02 276.311 356.342 276.992 356.342 277.86C356.342 278.504 356.184 279.041 355.866 279.47C355.549 279.899 355.162 280.24 354.704 280.492C354.247 280.744 353.636 281.019 352.87 281.318C352.198 281.57 351.662 281.803 351.26 282.018C350.859 282.223 350.523 282.489 350.252 282.816C349.982 283.143 349.846 283.549 349.846 284.034H356.44ZM363.807 281.682H365.165V282.634H363.807V285H362.757V282.634H356.961V281.626L362.393 275.2H363.807V281.682ZM358.123 281.64V281.682H362.757V276.208H362.715L358.123 281.64Z" fill="white"/>
<g clip-path="url(#clip0_919_673)">
<path d="M661.93 254.575C621.151 229.93 624.644 222.191 599.655 179.059C542.728 69.8794 407.743 17.1666 285.647 41.8324C226.274 53.8245 180.998 83.4882 177.927 85.6391C168.047 92.556 146.755 107.683 125.997 133.319C99.5042 166.04 84.2272 196.766 84.2272 196.766C78.0574 209.179 72.8854 221.776 59.7516 235.272C50.4477 244.839 40.9962 250.912 34.3906 254.575H106.314C108.885 240.98 113.017 224.876 119.785 207.373C125.526 192.52 131.97 179.762 138.118 169.168C139.151 174.932 141.639 184.563 148.252 194.685C154.478 204.21 161.744 210.156 166.438 213.439C169.572 203.626 174.28 191.775 181.49 179.122C187.337 168.852 193.521 160.347 199.177 153.507C195.06 166.652 191.159 182.137 188.475 199.676C185.306 220.384 184.582 238.977 184.954 254.575H237.567C231.193 241.128 221.945 216.328 224.553 185.399C228.214 141.958 253.434 108.161 263.04 100.914C264.305 99.9578 272.274 94.2078 271.297 92.2396C270.981 91.6 269.821 91.5719 269.435 91.5648C262.232 91.4032 227.047 144.58 227.483 193.644C227.483 193.644 227.701 218.184 238.164 235.687C240.567 239.708 243.434 243.159 243.434 243.159C245.894 246.097 247.967 247.953 248.986 248.972C248.986 248.972 255.858 254.989 265.275 258.37C290.952 267.586 315.027 253.682 320.009 250.659C373.093 275.796 448.557 261.393 486.785 217.945C497.691 202.508 508.169 184.858 498.612 164.578C474.937 131.4 440.912 155.503 408.573 162.596C395.439 163.875 393.809 150.365 397.695 142.295C405.966 115.675 454.081 85.6321 492.814 102.545C499.652 105.532 505.941 110.572 505.941 110.572C507.817 112.463 510.621 115.739 512.539 120.476C515.224 127.105 514.76 133.122 514.374 136.616C511.781 160.185 499.244 192.885 498.056 196.21C492.617 211.457 489.905 219.077 484.86 226.738C475.689 240.664 464.432 249.415 456.449 254.568H540.409C534.197 251.756 528.491 245.057 529.777 235.989C530.669 226.928 538.21 196.997 550.086 156.839C558.624 168.044 568.251 182.644 576.873 200.695C586.571 221.01 592.122 239.686 595.404 254.575H661.916H661.93ZM163.613 168.662C160.507 162.708 157.696 150.667 157.83 144.003C166.642 132.693 179.684 118.311 197.948 104.625C217.188 90.2011 235.606 81.5129 249.401 76.2339C220.076 97.2726 185.524 131.632 163.613 168.655V168.662ZM316.039 211.07C292.421 237.901 258.177 231.209 260.131 192.548C263.982 139.329 298.296 96.0566 321.907 92.2396C333.059 90.4893 342.131 92.9285 346.909 109.665C357.162 131.836 333.347 197.911 316.039 211.07ZM465.907 175.382C467.699 178.285 464.818 183.002 463.307 185.505C462.176 187.374 460.159 190.172 456.709 192.85C439.028 211.232 397.976 219.653 383.071 216.553C383.24 216.216 382.867 204.195 382.867 204.195C382.867 204.195 372.748 197.173 366.431 199.908C361.603 208.989 353.803 218.943 345.377 227.814C354.724 215.281 364.512 197.286 371.603 177.168C371.638 177.21 371.652 177.238 371.652 177.238C371.596 177.294 364.042 168.726 363.732 168.979C363.451 169.211 368.181 177.055 376.543 183.839C378.658 185.554 381.118 187.543 384.589 189.265C395.425 194.643 406.626 192.703 413.386 191.444C422.515 189.743 429.134 186.7 433.386 184.717C445.627 178.995 455.212 171.376 462.696 173.337C464.909 173.92 465.675 175.01 465.907 175.375V175.382ZM381.125 108.463C379.178 92.1412 373.465 76.7611 362.432 63.9607C360.036 61.7465 357.563 59.8837 355.033 58.3162C381.047 59.2651 407.013 63.9677 431.826 72.3959C411.531 77.0423 393.457 91.3258 381.125 108.463Z" fill="black"/>
<path d="M625.34 235.229C612.881 221.318 606.929 208.005 604.771 203.366C591.104 173.976 568.364 145.971 562.7 138.998C558.048 133.269 537.915 108.983 506.602 87.5647C438.635 41.0588 366.087 40.9393 341.063 41.2275C298.851 41.7195 267.932 50.8155 259.401 53.4515C242.901 58.5477 202.481 72.761 162.06 107.085C148.393 118.69 133.256 131.547 118.984 152.979C116.04 157.401 97.3614 185.87 83.8131 213.474C82.1476 216.869 77.8259 226.197 69.042 236.087C64.2495 241.479 59.6889 245.302 56.6602 247.643C63.3289 247.566 70.335 247.278 77.6503 246.729C81.9649 246.406 86.1461 245.998 90.2078 245.534C95.4992 225.719 108.626 185.125 140.311 145.845C139.644 152.663 139.138 167.741 147.219 183.831C152.103 193.553 158.385 200.174 162.89 204.188C165.672 196.4 169.397 187.753 174.428 178.7C185.159 159.376 197.892 145.303 208.257 135.701C202.2 153.345 196.353 174.995 192.86 200.069C190.401 217.684 189.544 233.852 189.558 248.114H216.781C207.168 219.498 208.201 196.596 209.908 183.564C216.936 129.797 255.999 85.948 292.997 65.3451C279.351 76.599 269.042 91.9791 263.807 99.7957C236.527 140.509 221.032 201.995 244.925 231.975C247.089 234.688 253.083 242.027 263.364 245.998C282.871 253.534 302.941 243.208 309.82 239.672C365.209 211.189 387.007 89.4275 348.772 59.6021C340.361 53.0367 330.515 52.0737 328.147 51.898C324.739 51.6449 321.401 51.8699 318.162 52.4885C318.38 52.3619 318.59 52.2354 318.787 52.1159C325.73 51.4481 333.13 50.9842 340.937 50.8436C393.338 49.9087 434.412 63.8408 455.936 72.9227C445.754 73.3093 431.938 75.4321 417.596 82.8059C415.425 83.9235 386.634 99.2756 374.168 132.573C374.168 132.573 366.22 153.802 371.603 167.6C374.562 175.178 379.853 179.15 379.853 179.15C382.01 180.563 385.433 182.524 389.937 183.915C396.311 185.891 402.684 186.059 409.55 185.019C429.598 181.961 444.109 170.004 457.981 168.261C460.553 167.938 466.343 167.284 469.323 170.7C469.323 170.7 470.005 171.509 470.454 172.556C473.504 179.635 465.001 189.441 461.572 193.398C458.951 196.428 445.149 211.688 415.045 219.863C406.015 222.317 391.806 225.121 373.796 224.264C373.725 222.745 373.669 221.22 373.613 219.681C373.515 216.869 373.437 214.085 373.381 211.337C372.728 210.76 371.519 209.889 369.804 209.551C369.249 209.439 368.736 209.411 368.293 209.411C364.794 215.786 359.994 223.23 353.445 230.864C349.025 236.024 344.605 240.326 340.522 243.883C350.585 246.188 364.885 248.473 382.046 247.917C412.129 246.94 433.512 237.816 437.743 235.953C447.229 231.778 472.148 220.433 487.636 195.654C495.401 183.234 495.225 176.31 494.234 172.001C492.281 163.495 485.071 156.754 477.734 153.844C473.399 152.129 469.541 151.96 466.365 152.016C448.516 152.312 439.422 159.587 414.694 165.738C407.589 167.509 397.463 169.611 390.837 164.845C387.836 162.68 386.171 159.601 386.171 159.601C386.171 159.601 383.592 154.828 384.716 147.722C385.791 140.952 394.842 115.218 422.986 99.6622C429.901 95.8382 451.811 84.985 477.362 89.8492C485.556 91.4097 492.892 94.348 498.57 97.0965C498.261 97.5885 511.598 102.945 517.325 114.599C520.881 121.833 520.565 129.607 519.307 135.87C514.95 153.626 510.572 170.707 506.187 187.543C502.547 201.496 498.141 219.231 484.6 237.88C481.487 242.167 478.62 245.506 476.624 247.714H519.384C518.878 246.708 517.923 244.698 517.136 242.055C514.585 233.458 516.082 225.866 516.96 221.888C519.138 212.005 527.747 176.851 540.782 129.277C542.722 131.196 544.232 132.756 545.293 133.867C584.681 175.199 600.836 220.032 607.695 244.993C610.688 245.485 613.808 245.921 617.041 246.28C624.504 247.109 631.503 247.411 637.94 247.383C634.833 244.81 630.266 240.747 625.333 235.237L625.34 235.229ZM323.552 71.2848C324.802 71.3973 332.469 72.1776 338.85 77.33C370.662 103.015 342.04 214.17 298.415 228.573C293.609 230.161 277.334 235.532 264.355 227.568C258.564 224.011 255.578 219.118 254.271 216.932C240.997 194.691 246.92 148.207 272.548 110.164C280.791 97.9259 300.165 69.176 323.552 71.2848ZM140.311 145.831C144.001 141.255 147.95 136.693 152.159 132.187C148.21 136.735 144.261 141.283 140.311 145.831ZM284.965 58.1119C271.733 64.86 220.583 92.3728 178.237 153.436C174.33 159.067 168.385 168.036 161.878 179.712C159.72 176.528 157.542 172.683 155.715 168.17C149.742 153.394 150.901 139.715 152.201 132.152C158.983 124.897 166.459 117.784 174.709 110.944C184.934 102.467 215.987 78.1595 263.273 63.2363C268.058 61.725 276.252 59.2858 287.158 56.9732C286.146 57.4863 285.387 57.901 284.965 58.1119ZM459.815 74.6027C462.155 75.636 464.193 76.5779 465.908 77.3863C475.802 82.0608 484.839 87.0516 492.997 92.0775C479.744 84.4296 468.29 78.6516 459.808 74.6027H459.815ZM537.283 125.882C538.561 127.091 539.721 128.215 540.754 129.234C539.595 128.117 538.435 126.999 537.283 125.882Z" fill="#E1FF2D" stroke="#E1FF2D" stroke-miterlimit="10"/>
<path d="M251.52 99.9299C257.949 92.9638 270.219 80.3533 282.509 71.3487C288.103 67.2506 293.781 63.7992 293.837 63.7641C294.821 63.1666 295.784 62.5972 296.711 62.063C296.564 62.1614 296.423 62.2668 296.276 62.3652C293.957 63.982 292.312 65.2965 291.525 65.9291C285.545 70.709 279.34 76.8808 273.079 84.2826L251.52 99.9299Z" fill="black"/>
<path d="M290.606 66.2242C284.83 70.9268 278.864 76.9088 272.849 84.0224L270.059 86.0469L254.283 97.4976C261.085 90.2996 271.9 79.5588 282.729 71.6297C285.603 69.5209 288.477 67.6019 290.606 66.2242ZM310.486 54.7102C310.437 54.7102 303.15 57.7117 293.67 63.4617C293.67 63.4617 287.992 66.906 282.314 71.0604C267.395 81.9839 252.842 97.9123 248.949 102.235C257.08 96.3378 265.203 90.4402 273.333 84.5426C277.971 79.0527 284.457 72.0374 291.759 66.2031C292.63 65.5072 294.239 64.2279 296.488 62.6533C304.176 57.29 310.493 54.7243 310.486 54.7102Z" fill="black"/>
</g>
<defs>
<clipPath id="clip0_919_673">
<rect width="627.452" height="227.088" fill="white" transform="translate(34.4414 35.9561)"/>
</clipPath>
</defs>
</svg>
