<svg width="1015" height="367" viewBox="0 0 1015 367" fill="none" xmlns="http://www.w3.org/2000/svg">
<g clip-path="url(#clip0_947_449)">
<path d="M1015.06 353.312C949.094 313.483 954.744 300.976 914.321 231.27C822.233 54.8238 603.874 -30.366 406.363 9.49678C310.319 28.8772 237.078 76.8171 232.111 80.2933C216.128 91.4717 181.685 115.919 148.105 157.349C105.249 210.231 80.5364 259.886 80.5364 259.886C70.5557 279.948 62.1892 300.306 40.9433 322.117C25.8927 337.578 10.6034 347.394 -0.0820312 353.312H116.264C120.425 331.342 127.109 305.315 138.056 277.029C147.343 253.025 157.767 232.406 167.714 215.286C169.385 224.602 173.409 240.165 184.106 256.524C194.177 271.917 205.931 281.527 213.525 286.833C218.595 270.974 226.211 251.82 237.874 231.372C247.332 214.775 257.335 201.029 266.486 189.976C259.825 211.219 253.516 236.246 249.173 264.589C244.047 298.056 242.876 328.104 243.478 353.312H328.587C318.277 331.58 303.317 291.502 307.534 241.517C313.457 171.311 354.255 116.691 369.794 104.979C371.84 103.434 384.731 94.1414 383.151 90.9605C382.639 89.9268 380.764 89.8813 380.139 89.87C368.487 89.6087 311.57 175.548 312.275 254.842C312.275 254.842 312.627 294.501 329.553 322.787C333.441 329.285 338.079 334.863 338.079 334.863C342.057 339.612 345.411 342.611 347.059 344.258C347.059 344.258 358.177 353.982 373.409 359.447C414.946 374.34 453.891 351.869 461.951 346.985C547.821 387.609 669.897 364.332 731.736 294.114C749.378 269.167 766.327 240.642 750.867 207.868C712.57 154.248 657.529 193.202 605.215 204.664C583.97 206.732 581.332 184.898 587.619 171.856C600.998 128.835 678.831 80.282 741.489 107.615C752.55 112.443 762.724 120.588 762.724 120.588C765.759 123.644 770.294 128.938 773.398 136.594C777.74 147.307 776.99 157.031 776.365 162.677C772.17 200.768 751.89 253.615 749.969 258.989C741.171 283.629 736.783 295.943 728.621 308.326C713.787 330.83 695.576 344.974 682.662 353.301H818.481C808.432 348.757 799.202 337.931 801.282 323.276C802.726 308.633 814.923 260.261 834.134 195.36C847.946 213.469 863.519 237.064 877.467 266.237C893.155 299.067 902.135 329.251 907.444 353.312H1015.04H1015.06ZM208.955 214.468C203.931 204.846 199.384 185.386 199.6 174.617C213.855 156.338 234.953 133.095 264.497 110.977C295.621 87.6661 325.415 73.6249 347.73 65.0934C300.293 99.0944 244.399 154.623 208.955 214.457V214.468ZM455.528 283.004C417.322 326.366 361.928 315.551 365.088 253.07C371.317 167.062 426.825 97.1291 465.02 90.9605C483.06 88.1318 497.736 92.0738 505.465 119.122C522.051 154.952 483.526 261.738 455.528 283.004ZM697.963 225.329C700.862 230.02 696.201 237.643 693.757 241.687C691.927 244.709 688.664 249.23 683.083 253.559C654.482 283.265 588.073 296.875 563.963 291.865C564.235 291.32 563.633 271.894 563.633 271.894C563.633 271.894 547.264 260.545 537.044 264.964C529.235 279.642 516.617 295.728 502.987 310.064C518.106 289.809 533.941 260.727 545.411 228.214C545.468 228.282 545.49 228.328 545.49 228.328C545.4 228.419 533.18 214.571 532.679 214.979C532.225 215.354 539.875 228.032 553.402 238.995C556.824 241.767 560.803 244.982 566.418 247.765C583.947 256.455 602.067 253.32 613.002 251.287C627.769 248.537 638.477 243.618 645.354 240.415C665.156 231.168 680.662 218.853 692.768 222.023C696.349 222.966 697.588 224.726 697.963 225.317V225.329ZM560.814 117.18C557.665 90.8015 548.423 65.9454 530.576 45.2586C526.7 41.6801 522.699 38.6697 518.606 36.1364C560.689 37.67 602.692 45.2699 642.83 58.8908C610.001 66.3998 580.764 89.4837 560.814 117.18Z" fill="black"/>
<path d="M955.869 322.049C935.714 299.567 926.086 278.051 922.596 270.553C900.486 223.056 863.701 177.797 854.539 166.528C847.013 157.269 814.446 118.02 763.792 83.4057C653.845 8.2468 536.487 8.05367 496.007 8.51944C427.723 9.31465 377.706 24.0147 363.905 28.2748C337.215 36.5109 271.829 59.4811 206.443 114.953C184.333 133.708 159.847 154.486 136.76 189.123C131.997 196.269 101.782 242.278 79.8655 286.889C77.1714 292.376 70.1804 307.451 55.971 323.435C48.2183 332.148 40.8408 338.328 35.9414 342.111C46.7292 341.986 58.0626 341.52 69.8962 340.634C76.8758 340.111 83.6395 339.452 90.2099 338.703C98.7696 306.678 120.004 241.073 171.26 177.593C170.18 188.612 169.362 212.98 182.435 238.983C190.335 254.694 200.497 265.396 207.784 271.882C212.286 259.295 218.31 245.322 226.45 230.69C243.808 199.461 264.406 176.718 281.173 161.2C271.374 189.714 261.916 224.703 256.267 265.225C252.288 293.694 250.901 319.822 250.924 342.872H294.962C279.411 296.625 281.082 259.613 283.844 238.551C295.212 151.658 358.404 80.7928 418.254 47.4962C396.178 65.6838 379.502 90.5398 371.033 103.172C326.904 168.97 301.839 268.338 340.488 316.789C343.99 321.174 353.686 333.034 370.317 339.452C401.873 351.631 434.339 334.942 445.467 329.228C535.066 283.197 570.328 86.4161 508.478 38.2149C494.871 27.6045 478.945 26.0482 475.114 25.7642C469.601 25.3552 464.201 25.7188 458.961 26.7184C459.313 26.514 459.654 26.3095 459.972 26.1164C471.203 25.0371 483.173 24.2874 495.803 24.0602C580.57 22.5493 647.013 45.0651 681.832 59.7424C665.361 60.3672 643.012 63.798 619.811 75.7148C616.298 77.5211 569.726 102.332 549.56 156.145C549.56 156.145 536.703 190.452 545.411 212.752C550.196 224.999 558.756 231.417 558.756 231.417C562.246 233.701 567.782 236.87 575.068 239.119C585.379 242.312 595.689 242.584 606.795 240.903C639.227 235.961 662.701 216.638 685.14 213.82C689.301 213.298 698.667 212.241 703.487 217.762C703.487 217.762 704.59 219.069 705.317 220.761C710.251 232.201 696.496 248.049 690.949 254.444C686.709 259.341 664.383 284.003 615.685 297.215C601.077 301.18 578.092 305.713 548.957 304.327C548.844 301.873 548.753 299.408 548.662 296.92C548.503 292.376 548.378 287.877 548.287 283.435C547.229 282.504 545.274 281.095 542.5 280.55C541.602 280.368 540.773 280.323 540.057 280.323C534.395 290.626 526.631 302.657 516.037 314.994C508.887 323.332 501.737 330.285 495.132 336.033C511.41 339.759 534.543 343.451 562.303 342.554C610.967 340.975 645.558 326.229 652.402 323.219C667.748 316.471 708.057 298.135 733.111 258.091C745.672 238.017 745.388 226.828 743.785 219.864C740.625 206.118 728.962 195.224 717.094 190.521C710.08 187.749 703.84 187.476 698.702 187.567C669.828 188.044 655.118 199.802 615.116 209.742C603.624 212.605 587.243 216.001 576.523 208.299C571.669 204.8 568.975 199.825 568.975 199.825C568.975 199.825 564.804 192.111 566.622 180.626C568.362 169.686 583.003 128.097 628.53 102.956C639.715 96.7766 675.159 79.2365 716.492 87.0977C729.746 89.6197 741.614 94.3682 750.799 98.81C750.299 99.6052 771.874 108.262 781.139 127.097C786.891 138.786 786.379 151.351 784.344 161.473C777.297 190.168 770.214 217.774 763.121 244.981C757.233 267.531 750.105 296.193 728.2 326.331C723.164 333.261 718.526 338.657 715.298 342.224H784.469C783.651 340.6 782.105 337.351 780.832 333.079C776.705 319.186 779.127 306.917 780.548 300.487C784.072 284.515 797.997 227.702 819.083 150.817C822.221 153.918 824.665 156.44 826.381 158.235C890.096 225.033 916.23 297.488 927.325 337.828C932.167 338.623 937.215 339.327 942.444 339.907C954.516 341.247 965.838 341.736 976.251 341.69C971.226 337.533 963.837 330.966 955.857 322.06L955.869 322.049ZM467.68 57.0955C469.703 57.2773 482.105 58.5383 492.427 66.8653C543.887 108.375 497.587 288.014 427.018 311.291C419.243 313.858 392.915 322.537 371.92 309.666C362.553 303.918 357.722 296.011 355.607 292.478C334.134 256.535 343.717 181.41 385.174 119.929C398.508 100.151 429.848 53.6875 467.68 57.0955ZM171.26 177.57C177.228 170.175 183.617 162.802 190.426 155.52C184.037 162.87 177.649 170.22 171.26 177.57ZM405.261 35.8066C383.855 46.7123 301.111 91.176 232.611 189.862C226.29 198.961 216.673 213.457 206.147 232.326C202.657 227.18 199.133 220.966 196.178 213.673C186.515 189.794 188.391 167.687 190.494 155.463C201.464 143.739 213.559 132.243 226.904 121.19C243.444 107.489 293.677 68.2057 370.169 44.0881C377.91 41.6457 391.165 37.7037 408.807 33.9662C407.17 34.7955 405.943 35.4658 405.261 35.8066ZM688.107 62.4575C691.892 64.1275 695.189 65.6497 697.963 66.9561C713.968 74.5106 728.587 82.5763 741.784 90.6989C720.345 78.339 701.816 69.001 688.096 62.4575H688.107ZM813.422 145.33C815.491 147.284 817.367 149.101 819.038 150.749C817.162 148.942 815.287 147.136 813.422 145.33Z" fill="#E1FF2D" stroke="#E1FF2D" stroke-miterlimit="10"/>
<path d="M351.162 103.389C361.563 92.1311 381.411 71.7509 401.293 57.1985C410.341 50.5756 419.526 44.9977 419.617 44.9409C421.209 43.9753 422.766 43.0551 424.267 42.1918C424.028 42.3508 423.801 42.5212 423.562 42.6803C419.811 45.2931 417.151 47.4174 415.877 48.4399C406.204 56.1648 396.166 66.139 386.038 78.1012L351.162 103.389Z" fill="black"/>
<path d="M414.389 48.9169C405.045 56.5168 395.393 66.1843 385.663 77.6808L381.15 80.9526L355.63 99.4583C366.634 87.8255 384.128 70.4671 401.646 57.6529C406.295 54.2448 410.944 51.1435 414.389 48.9169ZM446.547 30.309C446.468 30.309 434.68 35.1597 419.345 44.4523C419.345 44.4523 410.16 50.0188 400.975 56.7327C376.842 74.3864 353.3 100.129 347.002 107.115C360.154 97.5838 373.295 88.0527 386.447 78.5215C393.95 69.6492 404.442 58.3117 416.253 48.8828C417.662 47.7581 420.266 45.6906 423.903 43.1459C436.339 34.4781 446.559 30.3317 446.547 30.309Z" fill="black"/>
</g>
<defs>
<clipPath id="clip0_947_449">
<rect width="1015" height="367" fill="white"/>
</clipPath>
</defs>
</svg>
