<svg width="872" height="369" viewBox="0 0 872 369" fill="none" xmlns="http://www.w3.org/2000/svg">
<rect x="40.9863" y="41.5796" width="790.029" height="285.514" fill="white" stroke="white"/>
<rect x="1" y="42" width="40" height="326" fill="#E1FF2D" fill-opacity="0.25"/>
<rect x="41" y="327" width="830" height="41" fill="#E1FF2D" fill-opacity="0.25"/>
<rect x="1" y="2" width="831" height="40" fill="#E1FF2D" fill-opacity="0.25"/>
<rect x="831" y="1" width="40" height="326" fill="#E1FF2D" fill-opacity="0.25"/>
<rect x="0.5" y="1.09375" width="871" height="366.486" stroke="white"/>
<path d="M831.563 316.908C780.153 285.814 784.556 276.049 753.053 221.63C681.285 83.88 511.11 17.3729 357.182 48.4935C282.332 63.6237 225.252 101.05 221.381 103.764C208.925 112.491 182.082 131.576 155.912 163.921C122.513 205.205 103.253 243.971 103.253 243.971C95.4745 259.633 88.9542 275.526 72.3965 292.554C60.667 304.624 48.7514 312.287 40.4238 316.908H131.097C134.34 299.756 139.549 279.437 148.08 257.354C155.318 238.614 163.442 222.517 171.194 209.152C172.496 216.424 175.632 228.574 183.969 241.346C191.818 253.363 200.978 260.866 206.896 265.008C210.847 252.627 216.783 237.674 225.872 221.71C233.243 208.753 241.039 198.021 248.171 189.392C242.979 205.977 238.062 225.515 234.678 247.642C230.683 273.77 229.77 297.228 230.24 316.908H296.568C288.533 299.942 276.874 268.653 280.161 229.63C284.777 174.821 316.572 132.179 328.683 123.036C330.277 121.83 340.323 114.575 339.092 112.092C338.693 111.285 337.232 111.249 336.744 111.24C327.664 111.036 283.306 178.129 283.855 240.033C283.855 240.033 284.13 270.994 297.321 293.077C300.351 298.15 303.966 302.505 303.966 302.505C307.066 306.212 309.68 308.553 310.964 309.839C310.964 309.839 319.629 317.431 331.5 321.697C363.871 333.324 394.223 315.781 400.504 311.968C467.426 343.683 562.564 325.51 610.758 270.692C624.507 251.217 637.716 228.947 625.668 203.36C595.821 161.5 552.925 191.911 512.155 200.859C495.598 202.474 493.542 185.428 498.441 175.246C508.869 141.66 569.527 103.755 618.359 125.093C626.979 128.863 634.908 135.222 634.908 135.222C637.273 137.607 640.808 141.74 643.226 147.718C646.611 156.081 646.026 163.673 645.539 168.08C642.27 197.817 626.465 239.075 624.968 243.27C618.111 262.507 614.691 272.12 608.33 281.787C596.769 299.356 582.577 310.398 572.513 316.899H678.362C670.53 313.351 663.337 304.899 664.958 293.459C666.083 282.027 675.589 244.263 690.561 193.596C701.325 207.733 713.462 226.153 724.332 248.928C736.557 274.559 743.556 298.124 747.693 316.908H831.563ZM203.335 208.513C199.419 201.001 195.875 185.809 196.044 177.402C207.153 163.132 223.595 144.986 246.62 127.718C270.877 109.52 294.096 98.5579 311.487 91.8974C274.518 118.442 230.957 161.792 203.335 208.504V208.513ZM395.498 262.019C365.723 295.871 322.552 287.428 325.015 238.649C329.87 171.504 373.129 116.907 402.896 112.092C416.955 109.883 428.392 112.961 434.416 134.077C447.342 162.05 417.318 245.416 395.498 262.019ZM584.437 216.992C586.696 220.655 583.064 226.606 581.159 229.763C579.733 232.122 577.19 235.652 572.841 239.031C550.551 262.223 498.796 272.848 480.006 268.936C480.218 268.511 479.749 253.345 479.749 253.345C479.749 253.345 466.991 244.485 459.027 247.935C452.941 259.394 443.107 271.952 432.485 283.144C444.268 267.331 456.609 244.627 465.547 219.245C465.592 219.298 465.609 219.333 465.609 219.333C465.539 219.404 456.015 208.593 455.625 208.912C455.271 209.205 461.233 219.103 471.775 227.661C474.442 229.825 477.543 232.335 481.919 234.508C495.58 241.292 509.701 238.845 518.224 237.257C529.732 235.111 538.077 231.271 543.437 228.77C558.87 221.55 570.954 211.937 580.389 214.411C583.179 215.147 584.145 216.522 584.437 216.983V216.992ZM477.552 132.561C475.098 111.968 467.895 92.5626 453.986 76.4125C450.965 73.6188 447.847 71.2686 444.658 69.2908C477.454 70.4881 510.189 76.4213 541.47 87.055C515.885 92.9173 493.099 110.939 477.552 132.561Z" fill="black"/>
<path d="M785.434 292.501C769.727 274.949 762.223 258.152 759.503 252.298C742.272 215.218 713.604 179.884 706.464 171.087C700.599 163.859 675.218 133.217 635.741 106.194C550.056 47.5177 458.594 47.3669 427.046 47.7305C373.83 48.3513 334.849 59.8276 324.094 63.1534C303.293 69.5832 252.335 87.5159 201.377 130.822C184.146 145.465 165.064 161.686 147.071 188.727C143.359 194.305 119.811 230.224 102.731 265.052C100.631 269.335 95.183 281.104 84.109 293.582C78.0671 300.385 72.3175 305.209 68.4992 308.163C76.9066 308.065 85.7391 307.702 94.9615 307.01C100.401 306.602 105.672 306.087 110.793 305.502C117.464 280.501 134.013 229.284 173.958 179.725C173.117 188.328 172.479 207.351 182.667 227.652C188.824 239.917 196.744 248.272 202.423 253.336C205.931 243.509 210.626 232.601 216.97 221.178C230.497 196.797 246.55 179.042 259.618 166.927C251.981 189.188 244.61 216.504 240.207 248.139C237.106 270.364 236.026 290.762 236.043 308.757H270.364C258.244 272.652 259.547 243.758 261.699 227.315C270.559 159.477 319.806 104.154 366.45 78.1593C349.245 92.3583 336.249 111.763 329.649 121.625C295.258 172.993 275.723 250.569 305.845 288.394C308.573 291.818 316.13 301.077 329.091 306.088C353.684 315.595 378.986 302.567 387.659 298.106C457.486 262.169 484.967 108.544 436.765 70.9135C426.16 62.6301 413.749 61.4151 410.763 61.1934C406.467 60.8741 402.259 61.1579 398.174 61.9383C398.449 61.7787 398.715 61.6191 398.963 61.4683C407.716 60.6257 417.044 60.0404 426.887 59.863C492.95 58.6835 544.731 76.2614 571.867 87.7199C559.03 88.2077 541.613 90.8861 523.531 100.189C520.794 101.6 484.498 120.969 468.782 162.981C468.782 162.981 458.762 189.764 465.548 207.174C469.278 216.734 475.949 221.745 475.949 221.745C478.669 223.528 482.983 226.002 488.662 227.758C496.697 230.25 504.732 230.463 513.388 229.151C538.663 225.293 556.957 210.207 574.445 208.007C577.687 207.599 584.987 206.775 588.743 211.085C588.743 211.085 589.603 212.105 590.17 213.426C594.015 222.357 583.295 234.729 578.972 239.722C575.667 243.545 558.268 262.799 520.315 273.113C508.931 276.209 491.018 279.747 468.312 278.665C468.224 276.749 468.153 274.825 468.082 272.883C467.958 269.335 467.86 265.823 467.79 262.355C466.966 261.628 465.442 260.529 463.28 260.103C462.58 259.961 461.934 259.925 461.376 259.925C456.964 267.969 450.913 277.361 442.656 286.993C437.084 293.503 431.511 298.93 426.364 303.418C439.051 306.327 457.079 309.209 478.713 308.509C516.639 307.276 543.597 295.764 548.93 293.414C560.89 288.146 592.305 273.832 611.83 242.569C621.62 226.898 621.398 218.162 620.149 212.726C617.686 201.994 608.597 193.489 599.348 189.818C593.882 187.654 589.018 187.441 585.014 187.512C562.512 187.884 551.048 197.063 519.872 204.824C510.916 207.058 498.15 209.71 489.796 203.697C486.013 200.966 483.913 197.081 483.913 197.081C483.913 197.081 480.662 191.059 482.079 182.093C483.435 173.552 494.845 141.083 530.326 121.457C539.044 116.632 566.666 102.939 598.878 109.076C609.208 111.045 618.457 114.752 625.615 118.22C625.225 118.841 642.04 125.599 649.26 140.303C653.743 149.429 653.344 159.238 651.758 167.14C646.266 189.543 640.747 211.094 635.218 232.335C630.629 249.939 625.075 272.315 608.003 295.844C604.079 301.254 600.464 305.467 597.948 308.251H651.856C651.218 306.983 650.013 304.447 649.021 301.112C645.805 290.266 647.692 280.687 648.8 275.668C651.546 263.198 662.398 218.845 678.832 158.821C681.277 161.242 683.182 163.211 684.52 164.612C734.175 216.761 754.542 273.326 763.189 304.819C766.963 305.44 770.896 305.99 774.971 306.442C784.38 307.489 793.203 307.87 801.318 307.835C797.403 304.589 791.644 299.463 785.425 292.509L785.434 292.501ZM404.969 85.6535C406.546 85.7954 416.212 86.7798 424.256 93.2807C464.361 125.687 428.278 265.93 373.28 284.102C367.221 286.106 346.703 292.882 330.34 282.833C323.04 278.346 319.275 272.173 317.627 269.415C300.892 241.354 308.361 182.705 340.67 134.707C351.062 119.266 375.486 82.9929 404.969 85.6535ZM173.958 179.707C178.609 173.934 183.588 168.178 188.895 162.493C183.916 168.231 178.937 173.969 173.958 179.707ZM356.324 69.0334C339.642 77.5474 275.156 112.26 221.771 189.303C216.846 196.407 209.351 207.724 201.147 222.455C198.427 218.437 195.681 213.586 193.378 207.892C185.847 189.25 187.309 171.991 188.948 162.448C197.497 153.296 206.923 144.321 217.324 135.691C230.214 124.995 269.363 94.3272 328.976 75.4987C335.009 73.5919 345.339 70.5145 359.088 67.5966C357.812 68.2441 356.855 68.7673 356.324 69.0334ZM576.757 89.8396C579.707 91.1433 581.338 93.9801 583.5 95C595.974 100.898 608.304 105.546 618.59 111.887C601.882 102.238 587.441 94.948 576.748 89.8396H576.757ZM674.42 154.537C676.033 156.063 677.494 157.482 678.797 158.768C677.335 157.358 675.873 155.948 674.42 154.537Z" fill="#E1FF2D"/>
<path d="M314.162 121.794C322.269 113.006 337.737 97.0949 353.231 85.7339C360.283 80.5634 367.441 76.2088 367.512 76.1645C368.752 75.4107 369.966 74.6923 371.136 74.0183C370.95 74.1424 370.772 74.2755 370.586 74.3996C367.663 76.4394 365.59 78.0979 364.598 78.8961C357.058 84.9269 349.236 92.7137 341.342 102.053L314.162 121.794Z" fill="black"/>
<path d="M363.437 79.2685C356.155 85.2017 348.634 92.7491 341.05 101.724L317.644 118.726C326.22 109.644 339.854 96.0926 353.506 86.0886C357.13 83.428 360.753 81.0068 363.437 79.2685ZM388.5 64.7414C388.438 64.7414 379.251 68.5284 367.3 75.7831C367.3 75.7831 360.142 80.1288 352.983 85.3702C334.176 99.1523 315.828 119.249 310.92 124.703C321.17 117.262 331.411 109.822 341.662 102.381C347.509 95.4541 355.686 86.603 364.89 79.2419C365.989 78.3639 368.018 76.7498 370.852 74.7631C380.544 67.9963 388.509 64.7592 388.5 64.7414Z" fill="black"/>
<path d="M21.0236 41.7524C16.9874 41.7524 13.3998 40.9115 10.2606 39.2298C7.15876 37.5107 4.72962 35.1189 2.97316 32.0545C1.25407 28.9527 0.394531 25.421 0.394531 21.4597C0.394531 17.4983 1.25407 13.9854 2.97316 10.9209C4.72962 7.8191 7.15876 5.42733 10.2606 3.74562C13.3998 2.02654 16.9874 1.16699 21.0236 1.16699C25.0597 1.16699 28.6286 2.02654 31.7305 3.74562C34.8697 5.42733 37.2988 7.8191 39.0179 10.9209C40.7744 13.9854 41.6526 17.4983 41.6526 21.4597C41.6526 25.421 40.7744 28.9527 39.0179 32.0545C37.2988 35.1189 34.8697 37.5107 31.7305 39.2298C28.6286 40.9115 25.0597 41.7524 21.0236 41.7524ZM21.0236 34.4649C23.378 34.4649 25.4521 33.923 27.2459 32.8393C29.0771 31.7555 30.4785 30.242 31.4502 28.2986C32.4592 26.318 32.9637 24.0383 32.9637 21.4597C32.9637 18.881 32.4592 16.6201 31.4502 14.6768C30.4785 12.6961 29.0771 11.1638 27.2459 10.0801C25.4521 8.99631 23.378 8.45442 21.0236 8.45442C18.6692 8.45442 16.5764 8.99631 14.7452 10.0801C12.9513 11.1638 11.5499 12.6961 10.5409 14.6768C9.56922 16.6201 9.08339 18.881 9.08339 21.4597C9.08339 24.0383 9.56922 26.318 10.5409 28.2986C11.5499 30.242 12.9513 31.7555 14.7452 32.8393C16.5764 33.923 18.6692 34.4649 21.0236 34.4649Z" fill="white"/>
<path d="M21.0236 367.195C16.9874 367.195 13.3998 366.354 10.2606 364.673C7.15876 362.954 4.72962 360.562 2.97316 357.497C1.25407 354.396 0.394531 350.864 0.394531 346.903C0.394531 342.941 1.25407 339.428 2.97316 336.364C4.72962 333.262 7.15876 330.87 10.2606 329.188C13.3998 327.469 16.9874 326.61 21.0236 326.61C25.0597 326.61 28.6286 327.469 31.7305 329.188C34.8697 330.87 37.2988 333.262 39.0179 336.364C40.7744 339.428 41.6526 342.941 41.6526 346.903C41.6526 350.864 40.7744 354.396 39.0179 357.497C37.2988 360.562 34.8697 362.954 31.7305 364.673C28.6286 366.354 25.0597 367.195 21.0236 367.195ZM21.0236 359.908C23.378 359.908 25.4521 359.366 27.2459 358.282C29.0771 357.198 30.4785 355.685 31.4502 353.741C32.4592 351.761 32.9637 349.481 32.9637 346.903C32.9637 344.324 32.4592 342.063 31.4502 340.12C30.4785 338.139 29.0771 336.607 27.2459 335.523C25.4521 334.439 23.378 333.897 21.0236 333.897C18.6692 333.897 16.5764 334.439 14.7452 335.523C12.9513 336.607 11.5499 338.139 10.5409 340.12C9.56922 342.063 9.08339 344.324 9.08339 346.903C9.08339 349.481 9.56922 351.761 10.5409 353.741C11.5499 355.685 12.9513 357.198 14.7452 358.282C16.5764 359.366 18.6692 359.908 21.0236 359.908Z" fill="white"/>
<path d="M850.981 41.7524C846.945 41.7524 843.357 40.9115 840.218 39.2298C837.116 37.5107 834.687 35.1189 832.93 32.0545C831.211 28.9527 830.352 25.421 830.352 21.4597C830.352 17.4983 831.211 13.9854 832.93 10.9209C834.687 7.8191 837.116 5.42733 840.218 3.74562C843.357 2.02654 846.945 1.16699 850.981 1.16699C855.017 1.16699 858.586 2.02654 861.688 3.74562C864.827 5.42733 867.256 7.8191 868.975 10.9209C870.732 13.9854 871.61 17.4983 871.61 21.4597C871.61 25.421 870.732 28.9527 868.975 32.0545C867.256 35.1189 864.827 37.5107 861.688 39.2298C858.586 40.9115 855.017 41.7524 850.981 41.7524ZM850.981 34.4649C853.335 34.4649 855.409 33.923 857.203 32.8393C859.034 31.7555 860.436 30.242 861.407 28.2986C862.416 26.318 862.921 24.0383 862.921 21.4597C862.921 18.881 862.416 16.6201 861.407 14.6768C860.436 12.6961 859.034 11.1638 857.203 10.0801C855.409 8.99631 853.335 8.45442 850.981 8.45442C848.626 8.45442 846.534 8.99631 844.702 10.0801C842.909 11.1638 841.507 12.6961 840.498 14.6768C839.526 16.6201 839.041 18.881 839.041 21.4597C839.041 24.0383 839.526 26.318 840.498 28.2986C841.507 30.242 842.909 31.7555 844.702 32.8393C846.534 33.923 848.626 34.4649 850.981 34.4649Z" fill="white"/>
<path d="M850.981 367.195C846.945 367.195 843.357 366.354 840.218 364.673C837.116 362.954 834.687 360.562 832.93 357.497C831.211 354.396 830.352 350.864 830.352 346.903C830.352 342.941 831.211 339.428 832.93 336.364C834.687 333.262 837.116 330.87 840.218 329.188C843.357 327.469 846.945 326.61 850.981 326.61C855.017 326.61 858.586 327.469 861.688 329.188C864.827 330.87 867.256 333.262 868.975 336.364C870.732 339.428 871.61 342.941 871.61 346.903C871.61 350.864 870.732 354.396 868.975 357.497C867.256 360.562 864.827 362.954 861.688 364.673C858.586 366.354 855.017 367.195 850.981 367.195ZM850.981 359.908C853.335 359.908 855.409 359.366 857.203 358.282C859.034 357.198 860.436 355.685 861.407 353.741C862.416 351.761 862.921 349.481 862.921 346.903C862.921 344.324 862.416 342.063 861.407 340.12C860.436 338.139 859.034 336.607 857.203 335.523C855.409 334.439 853.335 333.897 850.981 333.897C848.626 333.897 846.534 334.439 844.702 335.523C842.909 336.607 841.507 338.139 840.498 340.12C839.526 342.063 839.041 344.324 839.041 346.903C839.041 349.481 839.526 351.761 840.498 353.741C841.507 355.685 842.909 357.198 844.702 358.282C846.534 359.366 848.626 359.908 850.981 359.908Z" fill="white"/>
<path d="M41.2643 41.0795L41.2643 0.59375M41.2643 368.079L41.2643 327.594M830.736 41.0795V0.59375M830.736 366.522V326.037M0 41.858H40.4857M0 326.815H40.4857M831.514 41.858H872M831.514 326.815H872" stroke="white"/>
</svg>
